<?xml version="1.0" standalone="no"?>
<!DOCTYPE svg PUBLIC "-//W3C//DTD SVG 1.1//EN" "http://www.w3.org/Graphics/SVG/1.1/DTD/svg11.dtd" >
<!--
2013-9-30: Created.
-->
<svg>
<metadata>
Created by iconfont
</metadata>
<defs>

<font id="iconfont" horiz-adv-x="1024" >
  <font-face
    font-family="iconfont"
    font-weight="500"
    font-stretch="normal"
    units-per-em="1024"
    ascent="896"
    descent="-128"
  />
    <missing-glyph />
    
    <glyph glyph-name="queren1" unicode="&#59091;" d="M456 232c-8 0-16 3.2-22.4 9.6l-136 136c-12.8 12.8-12.8 32 0 44.8 12.8 12.8 32 12.8 44.8 0l113.6-113.6L704 558.4c12.8 12.8 32 12.8 44.8 0 12.8-12.8 12.8-32 0-44.8l-272-272c-4.8-6.4-12.8-9.6-20.8-9.6z"  horiz-adv-x="1024" />

    
    <glyph glyph-name="daibanliucheng" unicode="&#58881;" d="M511.3 831.8c-247.4 0-448-200.4-448-447.6 0-247.2 200.6-447.6 448-447.6s448 200.4 448 447.6c0 247.2-200.5 447.6-448 447.6z m0-795.7c-192.4 0-348.5 155.8-348.5 348.1s156 348.1 348.5 348.1c192.4 0 348.4-155.8 348.4-348.1S703.8 36.1 511.3 36.1z m49.8 596.8h-99.5v-298.4h248.8V434H561.1V632.9z"  horiz-adv-x="1024" />

    
    <glyph glyph-name="churudengji" unicode="&#58882;" d="M875.7-32.3H150.1c-28.6 0-51.8 23.2-51.8 51.9V746.1c0 28.7 23.2 51.9 51.8 51.9h518.3L564.7 694.2H201.9v-622.7h622V434.7l103.7 103.8v-518.9c-0.1-28.7-23.3-51.9-51.9-51.9zM305.6 175.3V331L772.1 798h51.8l103.7-103.8v-51.9l-466.5-467H305.6z m233.2 181.6l285.1 285.4-51.8 51.9L487 408.8l51.8-51.9zM409.2 331l-51.8-51.9v-51.9h51.8l51.8 51.9-51.8 51.9z"  horiz-adv-x="1024" />

    
    <glyph glyph-name="renshenjiancha" unicode="&#58883;" d="M870.3-33.2H158.9c-28.1 0-50.8 22.7-50.8 50.8v50.8h5.1C133.7 189.8 225.6 337 344.3 364.5c-20.7 31.8-32.9 69.6-32.9 110.4V627.4c0 112.3 91 203.3 203.3 203.3S718 739.7 718 627.4V475c0-40.8-12.3-78.6-32.9-110.4C803.6 336.9 895.5 189.8 916 68.4h5.1v-50.8c0-28.1-22.7-50.8-50.8-50.8zM616.2 627.4c0 56.1-45.5 101.6-101.6 101.6-56.1 0-101.6-45.5-101.6-101.6V475c0-56.1 45.5-101.6 101.6-101.6 56.1 0 101.6 45.5 101.6 101.6V627.4z m0-355.7H413c-94.6 0-173.4-115.8-196.1-203.3h595.4c-22.7 87.5-101.5 203.3-196.1 203.3z"  horiz-adv-x="1024" />

    
    <glyph glyph-name="suishencaiwu" unicode="&#58884;" d="M876.1 642.7H668.6V746.4c0 28.6-23.2 51.9-51.9 51.9H409.3c-28.6 0-51.9-23.2-51.9-51.9v-103.7H149.9c-28.6 0-51.9-23.2-51.9-51.9v-570.6c0-28.7 23.2-51.9 51.9-51.9h726.2c28.6 0 51.9 23.2 51.9 51.9V590.8c0 28.6-23.2 51.9-51.9 51.9z m-415 51.8h103.7v-51.9H461.1v51.9z m363.1-622.4H201.8V279.5h207.5v-51.9h207.5v51.9h207.5v-207.4z m0 259.3H616.7v51.9H409.3v-51.9H201.8V538.9h622.5v-207.5z"  horiz-adv-x="1024" />

    
    <glyph glyph-name="xinxicaiji" unicode="&#58885;" d="M914.6 694.6c-27.8 29.4-66.2 49.4-106.6 50-41.9 1.3-78-16.2-108.5-46.2-30.4-30-45.7-66.6-45.7-109.9-0.4-33 9.9-65.3 29.5-91.8 18.8-26.2 41.7-45.1 72.7-53.5l-0.2-183.8c0-34.1-5.9-113.5-24-143-18-29.5-30.8-39.3-61.1-55.7-31.5-17.2-58.9-24.4-94.8-24-37.3 0-65.2 6.9-96.3 24-31.1 17.1-28.8 16.6-54.9 52.5-20.3 28.1-25.6 112.1-25.6 146.2v30.7c57.7 10.2 112.4 13.7 148.9 55.9 25.2 29.3 41.7 61.8 49.5 97.6l5.2-0.8V754.6c0.1 4.1-1.3 8-3.9 11.1-2.7 3.2-6.3 5.4-10.3 6.4l-36.4 8.3V797.7H450.7v-33.6l-4.8-19c-1.1-5 0-10.2 3.2-14.3 0.5-0.7 1-1.4 1.6-2v-32.5h50.7v-235c-5.5-8.1-11.8-15.9-19-23.4-29.6-30.6-92.2-46-133.9-46S247.1 406.7 217 436.2c-7.6 7.4-14.2 15.2-19.8 23.5V696.3H248v32.5c0.6 0.6 1.1 1.3 1.6 2 3.1 4 4.3 9.3 3.2 14.3l-4.8 19V797.7H146.6v-17.4l-36.4-8.3c-4-0.9-7.7-3.2-10.3-6.3-2.6-3.2-4-7.4-4-12.7v-310.2l5.2 0.8c7.8-35.8 24.3-68.4 49.5-97.6 36.4-42.2 89-45.7 146.7-55.9v-30.7c-0.2-48.2 8.3-146.1 33.4-187.1 25.2-41.8 60.9-76.2 103.5-99.8 43.5-24.5 88.1-36.7 140.2-36.7 52.1 0 103.1 12.2 146.5 36.7 42.6 23.5 78.3 57.9 103.5 99.8 25.1 41 33.6 139 33.4 187.1l-0.1 183.8c30.4 8.9 49.7 26.8 70 53.6 20.3 26.8 30.4 56.8 30.4 89.9 0.9 40.4-14.9 79.4-43.5 107.9z m-71.6-138c-10.3-10.4-22.5-15.5-36.6-15.5-14.1 0-26.3 5.2-36.6 15.5-10.3 10.4-15.4 22.6-15.4 36.8-0.1 13.9 5.5 27.2 15.4 36.8 10.3 10.4 22.5 15.5 36.6 15.5 13.8 0.1 27.1-5.5 36.6-15.5 10.3-10.4 15.4-22.6 15.4-36.8 0.1-14.1-5-26.4-15.4-36.8z"  horiz-adv-x="1024" />

    
    <glyph glyph-name="xidujiance" unicode="&#58886;" d="M512 831.8c-222.3 0-406.7-183.6-406.7-405 0-108 37-199.8 102.1-275.4v-129.6c0-27 27.1-54 54.2-54h500.7c27.1 0 54.2 27 54.2 54V151.3c65.1 70.2 102.1 167.4 102.1 275.4 0.1 221.5-184.3 405.1-406.6 405.1z m229.6-604.9l-27.1-32.4v-123.7H665V172.5h-52.6v-101.6h-49.5V172.5H461.1v-101.6h-49.5V172.5H359v-101.6h-49.5V194.5l-27.1 32.4c-54.2 54-75 124.2-75 199.8 0 162 141.9 303.4 304.6 303.4 162.7 0 304.6-141.4 304.6-303.4 0-75.6-20.8-145.8-75-199.8z m-433 147.9h101.6V476.5H308.6v-101.7z m304.8 0H715V476.5H613.4v-101.7z"  horiz-adv-x="1024" />

    
    <glyph glyph-name="caiwufanhuan" unicode="&#58887;" d="M889.3 366.4V743.2c0 29.7-24.1 53.8-53.8 53.8h-646c-29.7 0-53.8-24.1-53.8-53.8v-376.8H81.9v-107.7h53.8v-269.1c0-29.7 24.1-53.8 53.8-53.8h645.9c29.7 0 53.8 24.1 53.8 53.8V258.7H943V366.4h-53.7z m-592.1-323h-53.8V258.7h53.8v-215.3z m161.5 0h-53.8V258.7h53.8v-215.3z m161.4 0h-53.8V258.7h53.8v-215.3z m161.5 0h-53.8V258.7h53.8v-215.3z m0 323H243.4v323h538.3v-323z"  horiz-adv-x="1024" />

    
    <glyph glyph-name="ruqujilu" unicode="&#58888;" d="M876 797.5H149.9c-28.6 0-51.9-23.2-51.9-51.9v-726.1c0-28.7 23.2-51.9 51.9-51.9H876c28.6 0 51.9 23.2 51.9 51.9V745.7c-0.1 28.6-23.3 51.8-51.9 51.8zM253.6 71.4h-51.9V693.8h51.9v-622.4z m570.5 0H305.5V693.8h518.6v-622.4z m-51.8 570.5H409.2v-103.7h363.1V641.9z"  horiz-adv-x="1024" />

    
    <glyph glyph-name="lishijilu" unicode="&#58889;" d="M720.6 278.9H305.7v-103.7h414.9V278.9z m0 363H305.7v-103.7h414.9V641.9zM876.1 797.5H150.1c-28.6 0-51.9-23.2-51.9-51.9v-726c0-28.6 23.2-51.9 51.9-51.9H876.2c28.6 0 51.9 23.2 51.9 51.9V745.6c-0.1 28.7-23.3 51.9-52 51.9z m-51.8-726H202V330.8h622.3v-259.3z m0 363H202V693.8h622.3v-259.3z"  horiz-adv-x="1024" />

    
    <glyph glyph-name="houwenguanli" unicode="&#58890;" d="M928 302.2c0 42.9-20.5 81.1-52.1 105.3 0.1 0.6 0.1 1.2 0.1 1.7V757.4c0 22.6-15.5 40.4-35.4 40.4H185.3c-19.8 0-35.4-17.8-35.4-40.4v-348.1c0-0.6 0.1-1.2 0.1-1.8-31.6-24.2-52-62.4-52-105.3v-90.8c0-3.1 0.4-6.2 1.2-9.1-0.8-1.3-1.2-2.6-1.2-3.9v-208.6c0-12.1 39.1-22.1 51.2-22.1 12.2 0 51.2 9.8 51.2 22.1V123.4h624.3v-133.7c0-12.2 39.3-22 51.6-22 12.2 0 51.6 9.9 51.6 22V197c0 1.4-0.5 2.8-1.5 4.3 1 3.2 1.5 6.6 1.5 10.2v90.7z m-727.6-75.1V239c0 48.7 33.1 91.5 81.7 91.5h460.1c48.6 0 81.7-42.9 81.7-91.5v-11.9H200.4z m572.2 468.2v-260.6H564.9V694H461.1v-259.3H253.4V695.3h519.2z"  horiz-adv-x="1024" />

    
    <glyph glyph-name="cunchugui" unicode="&#58891;" d="M409.6 331.2H150.3c-28.6 0-51.8-23.2-51.8-51.8v-259.2c0-28.6 23.2-51.8 51.8-51.8h259.2c28.6 0 51.8 23.2 51.8 51.8V279.3c0.1 28.7-23.1 51.9-51.7 51.9z m-51.9-259.3H202.2V227.5h155.5v-155.6zM876.2 797.8H616.9c-28.6 0-51.9-23.2-51.9-51.8v-259.2c0-28.6 23.2-51.8 51.9-51.8h259.2c28.6 0 51.8 23.2 51.8 51.8V745.9c0.1 28.7-23.1 51.9-51.7 51.9z m-51.9-259.3H668.8V694.1h155.5v-155.6zM409.6 797.8H150.3c-28.6 0-51.8-23.2-51.8-51.8v-259.2c0-28.6 23.2-51.8 51.8-51.8h259.2c28.6 0 51.8 23.2 51.8 51.8V745.9c0.1 28.7-23.1 51.9-51.7 51.9z m-51.9-259.3H202.2V694.1h155.5v-155.6z m518.5-207.3H616.9c-28.6 0-51.9-23.2-51.9-51.8v-259.2c0-28.6 23.2-51.8 51.9-51.8h259.2c28.6 0 51.8 23.2 51.8 51.8V279.3c0.1 28.7-23.1 51.9-51.7 51.9z m-51.9-259.3H668.8V227.5h155.5v-155.6z"  horiz-adv-x="1024" />

    
    <glyph glyph-name="zuizhongchuqu" unicode="&#58892;" d="M511.3-64.2c-247.4 0-448 200.6-448 448s200.6 448 448 448 448-200.6 448-448-200.6-448-448-448z m0 796.4c-185.6 0-348.4-162.9-348.4-348.4 0-185.6 162.9-348.4 348.4-348.4s348.4 162.9 348.4 348.4c0.1 185.5-162.8 348.4-348.4 348.4zM362 533.1h298.7v-298.7H362V533.1z"  horiz-adv-x="1024" />

    
    <glyph glyph-name="linshichuqu" unicode="&#58893;" d="M338 229.5h124.5V528.2H338v-298.7zM512.3 830C264.8 830 64.2 629.4 64.2 382c0-247.5 200.6-448.1 448.1-448.1S960.4 134.5 960.4 382c0 247.4-200.7 448-448.1 448z m0-796.5c-185.6 0-348.5 162.9-348.5 348.5s162.9 348.5 348.5 348.5S860.8 567.6 860.8 382 697.9 33.5 512.3 33.5z m49.8 196h123.4V528.2H562.1v-298.7z"  horiz-adv-x="1024" />

    
    <glyph glyph-name="chuquchenggong" unicode="&#58894;" d="M898 612.5L463.7 132.1 215.2 425.4l69.3 59.2L462 277.7l378.5 411.5C758.7 777.1 642 832.1 512.4 832.1 264.9 832.1 64.2 631.5 64.2 384c0-247.5 200.7-448.2 448.2-448.2S960.6 136.5 960.6 384c0 83.4-22.9 161.6-62.6 228.5z"  horiz-adv-x="1024" />

    
    <glyph glyph-name="shuzi" unicode="&#58895;" d="M458.1 460.1v265l107.2 107v-434.2l-107.2 62.2z m0-416.7V316.9l107.2 53.5v-433.9L458.1 43.4z"  horiz-adv-x="1024" />

    
    <glyph glyph-name="shuzi1" unicode="&#58896;" d="M257.7 724.4L383 831.8h260.1l54.8-54.9-54.8-52.4H257.7z m0-662.8V370.2L365 316.6v-255.1L311.3 8l-53.6 53.6z m24.5 323.2l100.8 58h260.1l101.2-58-101.2-49.4H383l-100.8 49.4z m46-394.1l54.8 52.4h282.5l102.4-107.3H383l-54.8 54.9z m332.3 469V706l53.7 53.5 53.7-53.5v-308.6l-107.4 62.3z"  horiz-adv-x="1024" />

    
    <glyph glyph-name="shuzi2" unicode="&#58897;" d="M268.5 831.8h363.1l54.8-54.9-54.8-52.4H371.5l-103 107.3z m0-896l103 107.3h260.1l54.8-52.4-54.8-54.9H268.5z m2.2 448l100.8 59h260.1l101.1-58-101.1-49.4H371.5l-100.8 48.4zM649 459.7V706l53.7 53.5 53.7-53.5v-308.6L649 459.7z m0-398.1v255l107.3 53.5v-308.6L702.6 8 649 61.6z"  horiz-adv-x="1024" />

    
    <glyph glyph-name="shuzi3" unicode="&#58898;" d="M257.7 397.4V831.8l107.3-107v-265.1l-107.3-62.3z m24.5-13.6l100.7 59h259.9l101.1-58-101.1-49.3H382.9l-100.7 48.3z m378 75.8V724.5l107.3 107v-434l-107.3 62.1z m0-416.9V316.3l107.3 53.5v-434L660.2 42.7z"  horiz-adv-x="1024" />

    
    <glyph glyph-name="shuzi4" unicode="&#58899;" d="M257.5 397.4V706l53.7 53.5 53.7-53.5v-246.4l-107.4-62.2z m0-461.6l102.9 107.3h282.5l54.8-52.4-54.8-54.9H257.5z m24.5 449l100.8 58h260.1l101.2-58-101.2-49.4H382.8L282 384.8z m46.1 392.1l54.8 54.9h362.5L642.9 724.4H382.8l-54.7 52.5z m332.2-715.3v255l107.3 53.5v-308.6L714 8.1l-53.7 53.5z"  horiz-adv-x="1024" />

    
    <glyph glyph-name="shuzi5" unicode="&#58900;" d="M257.5 397.4V706l53.7 53.5 53.7-53.5v-246.4l-107.4-62.2z m0-335.8V370.2l107.3-53.5v-255.1l-53.7-53.5-53.6 53.5zM282 383.8l100.8 59h260.1l101.2-58-101.2-49.4H382.8L282 383.8z m46.1 393.1l54.8 54.9h362.5L642.9 724.4H382.8l-54.7 52.5z m0-786.2l54.8 52.4H643l55.1-52.4-55.1-54.9H382.8l-54.7 54.9z m332.2 70.8V316.6l107.3 53.5v-308.6L714 8l-53.7 53.5z"  horiz-adv-x="1024" />

    
    <glyph glyph-name="shuzi6" unicode="&#58901;" d="M265.7 832.1h476.1L632.4 724.8H372.6L265.7 832.1zM651.6 460V706.4L759 814.7v-416.9L651.6 460z m0-417.2V316.6L759 370.1v-434.3l-107.4 107z"  horiz-adv-x="1024" />

    
    <glyph glyph-name="shuzi7" unicode="&#58902;" d="M257.5 397.4V706l53.7 53.5 53.7-53.5v-246.4l-107.4-62.2z m0-336v308L364.9 316v-254.6L311.2 8l-53.7 53.4z m24.5 322l100.8 59.3h260.1l101.2-58-101.2-49.4H382.8L282 383.4z m46.1 393.5l54.8 54.9H643l55.1-54.9-55.1-52.4H382.8l-54.7 52.4z m0-786.2l54.8 52.4H643l55.1-52.4-55.1-54.9H382.8l-54.7 54.9z m332.2 468.6V705.7l53.7 53.5 53.7-53.5v-308.6l-107.4 62.2z m0-397.8V316.6l107.3 53.5v-308.6L714 8l-53.7 53.5z"  horiz-adv-x="1024" />

    
    <glyph glyph-name="shuzi8" unicode="&#58903;" d="M257.5 397.4V706l53.7 53.5 53.7-53.5v-255l-107.4-53.6z m22.4-461.6l102.9 107.3h260.1l54.8-52.4-54.8-54.9h-363z m2.1 448l100.8 59h260.1l101.2-58-101.2-49.4H382.8L282 383.8z m46.1 393.1l54.8 54.9H643l55.1-54.9-55.1-52.4H382.8l-54.7 52.4zM660.3 451V706l53.7 53.5 53.7-53.5v-308.6L660.3 451z m0-389.4V307.9l107.3 62.2v-308.6L714 8.1l-53.7 53.5z"  horiz-adv-x="1024" />

    
    <glyph glyph-name="shuzi9" unicode="&#58904;" d="M257.5 397.4V706l53.7 53.5 53.7-53.5v-246.4l-107.4-62.2z m0-336v308L364.9 316v-254.6L311.2 8l-53.7 53.4z m70.6 715.5l54.8 54.9H643l55.1-54.9-55.1-52.4H382.8l-54.7 52.4z m0-786.2l54.8 52.4H643l55.1-52.4-55.1-54.9H382.8l-54.7 54.9z m332.2 468.6V705.7l53.7 53.5 53.7-53.5v-308.6l-107.4 62.2z m0-397.8V316.6l107.3 53.5v-308.6L714 8l-53.7 53.5z"  horiz-adv-x="1024" />

    
    <glyph glyph-name="renyuan" unicode="&#58912;" d="M513.1 354.9c122.3 0 221.4 99.1 221.4 221.4S635.4 797.8 513.1 797.8s-221.5-99.1-221.5-221.4 99.2-221.5 221.5-221.5z m0-55.2C329.6 299.7 181 181.5 181-32.6h664.3c0 214-148.8 332.3-332.2 332.3z"  horiz-adv-x="1024" />

    
    <glyph glyph-name="biaoji" unicode="&#58913;" d="M513.2 831.8c-180.5 0-324.3-149.2-324.3-332.9 0-80.3 51.7-229.7 84.8-286.9 38.8-66.8 88.6-115.4 114.3-143.2 25-27.1 82.6-101.7 125.3-101.1 40.5 0.6 108.6 80.9 124.5 101.1 17.8 22.6 78.2 78.2 107.7 139.4 29.5 61.1 92.1 206.6 92.1 286.9-0.1 183.7-143.8 336.7-324.4 336.7z m1-486.2c-88.7 0-161.8 73.1-161.8 161.8 0 90.5 71.4 161.8 161.8 161.8 88.7 0 161.8-73.1 161.8-161.8s-73-161.8-161.8-161.8z"  horiz-adv-x="1024" />

    
    <glyph glyph-name="pifu" unicode="&#58914;" d="M949.9 508.7l-12.8-79.6c-17.3-22-49.8-27.4-72.7-12.2L761 485.8v-376.1c0-54.9-44.5-99.5-99.5-99.5H363.1c-54.9 0-99.5 44.5-99.5 99.5V485.8L160.2 417c-22.9-15.3-55.5-9.8-72.7 12.2l-12.8 79.6c-17.3 22-12.7 52.2 10.2 67.4l229.9 180.1h27.8c33.8-57.5 94-97.4 165.2-99-0.1-0.1-0.1-0.3-0.2-0.5h9.4c-0.1 0.1-0.1 0.3-0.1 0.5 71.2 1.6 131.4 41.5 165.2 99h27.8l229.9-180.1c22.8-15.3 27.4-45.5 10.1-67.5z"  horiz-adv-x="1024" />

    
    <glyph glyph-name="qipao" unicode="&#58915;" d="M854.8 778.9H169.6c-58.2 0-105.4-47.2-105.4-105.4v-474.3c0-58.2 47.2-105.4 105.4-105.4H275v-158.1l210.8 158.1h368.9c58.2 0 105.4 47.2 105.4 105.4V673.5c0.1 58.2-47.1 105.4-105.3 105.4zM591.3 304.6H327.7c-29.1 0-52.7 23.6-52.7 52.7s23.6 52.7 52.7 52.7h263.5c29.1 0 52.7-23.6 52.7-52.7 0.1-29.1-23.5-52.7-52.6-52.7z m105.4 158.1h-369c-29.1 0-52.7 23.6-52.7 52.7s23.6 52.7 52.7 52.7h368.9c29.1 0 52.7-23.6 52.7-52.7 0.1-29.1-23.5-52.7-52.6-52.7z"  horiz-adv-x="1024" />

    
    <glyph glyph-name="xiazai" unicode="&#58916;" d="M876.1 113H526.2c10.4 2.4 18.7 7.6 27.1 15.7l304.8 297.5c23.5 22.9 23.5 57.3 0 80.3-23.5 22.9-58.7 22.9-82.2 0l-205-200.1V730.2c0 34.4-23.5 57.3-58.7 57.3-35.3 0-58.7-22.9-58.7-57.3v-423.7l-205 200.1c-23.5 22.9-58.8 22.9-82.2 0-23.5-22.9-23.5-57.3 0-80.3l295.9-288.9c5.7-9 14-16 24.3-20.2 3.6-1.9 7.4-3.3 11.6-4.2H149.9c-28.7 0-51.9-23.2-51.9-51.9s23.2-51.9 51.9-51.9h726.2c28.7 0 51.9 23.2 51.9 51.9S904.8 113 876.1 113z"  horiz-adv-x="1024" />

    


  </font>
</defs>
</svg>
